<svg width="44" height="46" viewBox="0 0 44 46" fill="none" xmlns="http://www.w3.org/2000/svg">
<path id="_icons" d="M32.7556 9.97598C33.2444 10.2244 33.4889 10.7213 33.9778 10.9697C34.2222 11.2182 34.2222 11.2182 34.4667 11.4666L30.0667 12.212C28.8444 12.4604 27.8667 13.7026 28.1111 15.1933C28.3556 16.4355 29.3333 17.1808 30.5556 17.1808C30.8 17.1808 30.8 17.1808 31.0444 17.1808L41.3111 15.1933C42.5333 14.9448 43.5111 13.7026 43.2667 12.212L41.3111 2.02586C41.0667 0.783649 39.8444 -0.210117 38.3778 0.0383249C37.1556 0.286766 36.1778 1.52897 36.4222 3.01962L37.1556 7.24313C36.6667 6.74624 35.9333 6.00092 35.4444 5.75248C35.4444 5.75248 35.4444 5.75248 35.2 5.75248C34.9556 5.50404 34.7111 5.2556 34.4667 5.2556C33.9778 4.75871 33.4889 4.51027 32.7556 4.01339C32.0222 3.51651 31.2889 3.26806 30.5556 2.77118H30.3111C30.0667 2.52274 29.5778 2.52274 29.0889 2.2743C28.1111 2.02586 27.1333 1.77741 26.4 1.52897C25.9111 1.52897 25.4222 1.28053 24.9333 1.28053H24.6889C24.4444 1.28053 23.9556 1.28053 23.7111 1.28053C23.2222 1.28053 22.4889 1.28053 22 1.28053C9.77778 1.28053 0 11.2182 0 23.6403C0 36.0623 9.77778 46 22 46C34.2222 46 44 36.0623 44 23.6403C44 22.1496 43.0222 21.1558 41.5556 21.1558C40.0889 21.1558 39.1111 22.1496 39.1111 23.6403C39.1111 33.3295 31.5333 41.0312 22 41.0312C12.4667 41.0312 4.88889 33.3295 4.88889 23.6403C4.88889 13.951 12.4667 6.24936 22 6.24936C22.4889 6.24936 23.2222 6.24936 23.7111 6.24936C24.2 6.24936 24.4444 6.24936 24.9333 6.4978C25.4222 6.4978 25.6667 6.74624 26.1556 6.74624C26.4 6.74624 26.6444 6.99469 26.8889 6.99469C28.6 7.49157 30.3111 8.23689 31.7778 9.4791C32.0222 9.72754 32.2667 9.72754 32.5111 9.97598C32.5111 9.4791 32.7556 9.72754 32.7556 9.97598Z" fill="black"/>
</svg>
