<svg width="228" height="88" viewBox="0 0 228 88" fill="none" xmlns="http://www.w3.org/2000/svg">
<g clip-path="url(#clip0_704_1281)">
<path d="M168.488 86.4359V30.1263L123.55 0.661133H90.5693V86.4359H168.488Z" fill="white"/>
<path d="M168.488 85.7005L168.346 85.6572L167.969 85.7747L168.488 85.7005Z" fill="#202020"/>
<path d="M166.021 85.9542C166.095 85.9728 166.058 86.0099 166.132 86.0284L167.585 85.7008C166.936 85.5154 166.447 86.0717 166.021 85.9481V85.9542Z" fill="#202020"/>
<path d="M165.594 85.9232C165.032 85.849 164.797 85.9974 164.667 86.053C164.865 85.9355 165.718 86.0901 165.594 85.9232Z" fill="#202020"/>
<path d="M116.043 85.9972L116.216 85.9849C116.13 85.9849 116.074 85.9849 116.043 85.9972Z" fill="#202020"/>
<path d="M103.115 86.5166L102.979 86.6402C105.39 86.4239 108.111 86.6402 110.664 86.5475L110.491 86.5908C116.965 86.6402 122.931 86.4362 129.355 86.3435C129.257 86.3559 129.219 86.393 129.121 86.4053C129.43 86.3621 129.776 86.2879 130.122 86.2941C130.215 86.3188 130.023 86.3497 129.912 86.3621C131.266 86.566 133.894 86.2323 134.741 86.3868C135.124 86.3682 135.291 86.2817 135.081 86.2199C140.108 86.1705 145.487 86.1272 150.607 85.9726C150.854 85.9974 150.897 86.053 150.829 86.1272C155.207 85.7996 159.795 85.9294 164.271 85.985C164.444 85.8985 163.814 85.8923 164.253 85.8058C162.812 85.7007 161.619 86.0159 160.308 85.8614L160.475 85.781C159.523 85.7254 160.283 85.9912 159.294 85.8861C158.904 85.8181 159.393 85.781 159.207 85.7749C157.185 85.812 155.083 85.7316 153.179 85.9356C152.709 85.7563 151.009 85.9294 150.26 85.7563C149.741 85.8243 149.215 85.812 149.018 85.9294C141.95 85.8367 134.729 86.0097 127.494 85.9974C124.106 86.3435 120.05 85.9294 116.031 86.0468C116.006 86.0345 116.006 86.0221 116.031 86.0097C114.72 86.0963 112.81 86.1334 111.245 86.0963L109.922 86.2446C106.732 86.1395 103.51 86.0963 100.283 86.0839C97.1789 86.0839 94.0565 86.0839 90.9402 86.0777V81.8437L90.9835 77.2264C91.07 66.3663 91.3235 56.8474 90.8598 46.2716C90.8907 46.284 90.9093 46.1974 90.9278 46.4756C90.8598 43.4221 90.9835 40.6406 90.9093 37.7664H90.9464C90.662 30.6396 90.9835 22.9257 90.6743 16.0523C90.6743 11.2682 90.6743 6.1255 90.6681 0.791226C94.3347 0.766502 98.1682 0.735597 101.897 0.710872L101.878 0.778864C108.97 0.630518 115.827 1.00138 122.9 0.890124C123.092 0.890124 123.278 0.896305 123.475 0.902486C123.828 1.13737 124.174 1.37225 124.527 1.60713L125.646 2.34268C126.4 2.8248 127.154 3.31311 127.915 3.80141C129.448 4.75948 130.988 5.72373 132.534 6.68797C135.625 8.61029 138.717 10.545 141.641 12.5847C145.252 15.36 150.638 18.0179 154.013 20.651C156.357 22.4003 158.725 24.0444 161.124 25.6392C162.324 26.4365 163.529 27.2153 164.741 27.988C165.934 28.7359 167.134 29.4838 168.333 30.2317C168.432 33.0935 168.525 35.9677 168.624 38.8667C168.432 46.9453 168.921 55.0116 168.537 62.8369C168.785 66.5455 168.235 70.6374 168.303 74.7664L168.389 74.618C168.129 76.1015 168.754 77.9187 168.364 78.8397L168.346 78.6852C168.148 79.4702 168.81 80.5086 168.575 80.9845L168.674 81.1143C168.704 82.0662 168.562 81.2256 168.525 81.9611C168.537 82.2393 168.698 82.0662 168.649 82.6411C168.253 82.7647 168.735 84.9651 168.29 85.0331C168.29 84.5139 168.117 85.849 168.024 84.6808C167.981 85.0146 168 86.6031 168.191 86.461C168.389 86.5969 168.568 87.2212 168.723 86.2508L168.575 86.0592C168.723 85.7316 168.649 85.8119 168.754 85.6945C168.772 84.4336 168.983 84.2605 169.075 83.3581C169.075 83.3642 169.069 83.3766 169.057 83.3581C168.884 82.74 168.989 81.8808 169.014 81.3925L169.094 81.1947C169.261 80.898 168.76 79.7607 169.051 80.1439C168.976 77.5726 168.983 74.6304 168.976 71.7624C168.865 71.3606 168.989 69.5681 168.772 70.1924C169.014 69.4754 169.075 67.3367 169.069 66.5455C169.094 66.5764 169.119 66.6073 169.106 66.731C169.422 65.1919 168.816 64.9075 169.199 63.4674C168.927 63.2448 169.286 60.8466 168.964 60.0307C169.026 59.8514 169.082 59.7958 169.125 59.8576C169.125 57.2615 169.23 54.3935 169.242 52.1992C169.001 50.3202 169.354 47.6562 169.02 46.0429C169.088 44.7078 169.23 42.5444 169.094 40.6777L169.137 40.857C169.119 38.7492 169.1 36.1223 168.896 34.6759C169.211 34.0516 169.15 33.143 169.249 32.2344C169.224 31.9871 169.205 31.6904 169.187 31.3443C169.168 30.9487 169.156 30.788 169.15 29.7928C168.525 29.3973 167.796 28.9399 167.054 28.4763C166.417 28.0807 165.767 27.6851 165.162 27.339C164.964 27.0361 163.647 26.418 163.671 26.1831C158.422 23.2285 152.282 19.0316 147.082 15.2549L147.169 15.292C146.408 14.9335 145.462 14.6183 144.671 14.2845C144.609 14.2227 144.64 14.198 144.788 14.2969C143.787 13.685 142.983 12.9123 141.981 12.3004C141.981 12.3004 142.049 12.3169 142.185 12.3498C141.215 11.8244 140.38 10.9653 139.205 10.3904L139.174 10.3039L138.438 9.9145C138.494 9.86505 138.581 9.79706 138.933 10.0567C136.472 8.41868 133.962 6.79305 131.427 5.17361C128.855 3.53562 126.264 1.88528 123.661 0.228748C121.491 0.253473 119.32 0.278197 117.144 0.302921C115.011 0.321465 112.878 0.327646 110.751 0.315283L111.128 0.247292L109.125 0.364732C109.137 0.327646 109.23 0.309102 109.329 0.29674C106.775 0.1793 104.129 0.377094 101.637 0.346189C101.649 0.309102 102.026 0.247292 101.674 0.204024C99.8314 0.395637 98.7123 -0.043219 97.791 0.35237C97.7045 0.333827 97.6488 0.247292 97.8343 0.210205C96.6348 0.234929 95.4229 0.259654 94.211 0.278197C92.8755 0.290559 91.5338 0.29674 90.1797 0.309102C90.1797 1.80492 90.1797 3.30074 90.1797 4.80275C90.1673 6.18113 90.1549 7.55951 90.1426 8.9317C90.5012 13.2276 90.1797 18.0364 90.4641 22.4992L90.3899 22.4744C90.6434 28.2538 90.3714 34.3854 90.4208 40.381C90.3899 42.8658 90.4765 44.5471 90.4826 47.0504L90.3961 47.1122C90.7362 51.3215 90.0931 55.9573 90.4641 60.3459L90.3404 60.043C90.5259 60.723 90.2724 62.7009 90.5939 62.4413L90.495 63.2139C90.9216 66.1994 90.2972 68.6409 90.5754 72.3001L90.5012 72.0591C90.563 73.0295 90.6063 74.1668 90.5383 74.8838C90.5259 74.7725 90.5074 74.822 90.4826 74.5933C90.1797 77.6344 90.5136 81.0278 90.5012 84.2358L90.359 83.8711C90.3961 84.2049 90.4146 84.6005 90.427 85.0393L90.4394 85.7254C90.4394 85.9912 90.4394 86.2693 90.4394 86.5537C91.1133 86.5537 91.8244 86.566 92.5169 86.566C93.1785 86.566 93.8215 86.566 94.4027 86.5413L94.279 86.6093L95.3116 86.5166L95.3363 86.6526C97.9951 86.6588 100.493 86.5475 103.084 86.529L103.115 86.5166Z" fill="#202020"/>
<path d="M129.912 86.3623C129.912 86.3623 129.894 86.3623 129.881 86.3623C129.801 86.3747 129.838 86.3747 129.912 86.3623Z" fill="#202020"/>
<path d="M169.113 83.0059C169.1 83.1295 169.094 83.2284 169.088 83.3335C169.113 83.3087 169.106 83.1109 169.113 83.0059Z" fill="#202020"/>
<path d="M66.0537 87.1718L66.1279 87.2089L66.3319 87.0977L66.0537 87.1718Z" fill="#202020"/>
<path d="M67.3585 86.9184C67.3214 86.8999 67.3399 86.8628 67.3028 86.8442L66.5361 87.1718C66.8762 87.3573 67.1359 86.801 67.3585 86.9246V86.9184Z" fill="#202020"/>
<path d="M67.5812 86.9496C67.878 87.0238 68.0016 86.8755 68.0696 86.8198C67.9645 86.9373 67.5132 86.7827 67.5812 86.9496Z" fill="#202020"/>
<path d="M93.7109 86.875C93.7109 86.875 93.6491 86.875 93.6182 86.8874C93.6676 86.8874 93.6924 86.8874 93.7109 86.875Z" fill="#202020"/>
<path d="M100.531 86.356L100.605 86.2324C99.331 86.4487 97.8966 86.2324 96.5549 86.3251L96.6476 86.2818C93.2346 86.2324 90.0874 86.4364 86.6991 86.5291C86.7547 86.5167 86.7671 86.4796 86.8227 86.4673C86.662 86.5105 86.4765 86.5847 86.2972 86.5785C86.2477 86.5538 86.3466 86.5229 86.4085 86.5105C85.6912 86.3066 84.3062 86.6403 83.861 86.4858C83.657 86.5044 83.5704 86.5909 83.6817 86.6527C81.0292 86.7021 78.1974 86.7454 75.4954 86.8999C75.3655 86.8752 75.3408 86.8196 75.3779 86.7454C73.0716 87.073 70.654 86.9432 68.2921 86.8876C68.1994 86.9741 68.5333 86.9803 68.2983 87.0668C69.0588 87.1719 69.6895 86.8567 70.3758 87.0112L70.2893 87.0915C70.7901 87.1472 70.3882 86.8814 70.9076 86.9865C71.1116 87.0545 70.8581 87.0916 70.9508 87.0977C72.0143 87.0607 73.1273 87.141 74.1289 86.937C74.3762 87.1163 75.2728 86.9432 75.6685 87.1163C75.9467 87.0483 76.2188 87.0607 76.3239 86.9432C80.0523 87.0359 83.8549 86.8629 87.676 86.8752C89.4629 86.5291 91.6022 86.9432 93.723 86.8258C93.7354 86.8381 93.7354 86.8505 93.723 86.8629C94.4155 86.7763 95.4234 86.7392 96.2457 86.7763L96.9444 86.628C101.909 86.9308 106.979 86.7207 112.025 86.8443C117.757 86.9308 122.777 87.1843 128.354 86.7207C128.348 86.7516 128.391 86.7701 128.249 86.7887C129.857 86.7207 131.328 86.8443 132.843 86.7701V86.8072C136.602 86.5229 140.671 86.8443 144.3 86.5353C148.715 86.5662 153.711 86.5353 158.385 86.4487L158.373 86.5167C162.114 86.3684 165.731 86.7392 169.459 86.628C173.299 86.7825 177.349 86.2324 181.219 86.4425C183.612 86.7825 186.759 86.0531 189.01 86.4055C193.629 86.937 198.118 86.5971 202.736 86.2757C206.997 86.4673 211.257 85.979 215.381 86.3622C217.335 86.1149 219.499 86.6651 221.675 86.5971L221.595 86.5105C222.374 86.7701 223.338 86.1458 223.821 86.5353L223.74 86.5538C224.154 86.7516 224.699 86.0902 224.952 86.3251L225.02 86.2262C225.521 86.1953 225.082 86.3375 225.465 86.3746C225.614 86.3622 225.521 86.2015 225.824 86.2509C225.892 86.6465 227.048 86.1644 227.085 86.6094C226.813 86.6094 227.512 86.7825 226.9 86.8752C227.073 86.9185 227.914 86.8999 227.84 86.7083C227.914 86.5105 228.241 86.3313 227.728 86.1768L227.623 86.3251C227.45 86.1768 227.493 86.2509 227.431 86.1458C226.764 86.1273 226.677 85.9172 226.195 85.8244C226.195 85.8244 226.207 85.8306 226.195 85.843C225.867 86.016 225.416 85.911 225.156 85.8862L225.051 85.8059C224.896 85.639 224.29 86.1397 224.495 85.8492C223.14 85.9233 221.589 85.9171 220.074 85.9233C219.863 86.0346 218.917 85.911 219.245 86.1273C218.868 85.8862 217.736 85.8244 217.322 85.8306C217.341 85.8059 217.353 85.7812 217.421 85.7935C216.611 85.4783 216.457 86.084 215.696 85.7008C215.579 85.9728 214.317 85.6143 213.884 85.9357C213.792 85.8739 213.761 85.8183 213.792 85.775C212.425 85.7688 210.91 85.6699 209.754 85.6575C208.765 85.8986 207.355 85.5463 206.508 85.8801C205.803 85.8121 204.659 85.6699 203.676 85.8059L203.769 85.7626C202.656 85.7812 201.271 85.7997 200.51 86.0037C200.183 85.6884 199.701 85.7503 199.224 85.6514C198.482 85.7997 196.986 85.7564 195.855 85.8862C195.682 85.7379 194.921 85.9481 194.865 85.7379C191.693 86.1459 187.773 86.0037 184.385 85.6946L184.435 85.6823C183.996 85.7997 183.489 86.0531 183.043 86.2077C183 86.1891 183.006 86.152 183.099 86.1582C182.481 86.1953 181.9 85.9913 181.287 86.0284C181.287 86.0037 181.322 85.981 181.392 85.9604C180.811 86.0531 180.193 85.7935 179.513 85.9604L179.476 85.9048L179.043 85.9851C179.055 85.9171 179.068 85.8121 179.303 85.8306C173.991 85.7626 168.513 86.1273 163.06 86.0717L163.258 86.0037L162.2 86.1211C162.2 86.084 162.256 86.0655 162.305 86.0531C160.958 85.9357 159.56 86.1335 158.249 86.1026C158.249 86.0655 158.453 86.0037 158.268 85.9604C157.297 86.152 156.71 85.7132 156.221 86.1088C156.178 86.0902 156.147 86.0037 156.246 85.9666C153.544 86.0964 150.768 86.0902 148.047 86.0284C145.778 86.3869 143.243 86.0593 140.887 86.3498L140.9 86.2757C137.851 86.5291 134.618 86.2571 131.458 86.3066C130.147 86.2757 129.257 86.3622 127.94 86.3684L127.909 86.2818C125.689 86.6218 123.241 85.979 120.928 86.3498L121.089 86.2262C120.731 86.4116 119.686 86.1582 119.828 86.4796L119.42 86.3807C117.849 86.8072 116.557 86.1829 114.628 86.4611L114.752 86.3869C114.238 86.4487 113.639 86.492 113.261 86.424C113.323 86.4116 113.292 86.3931 113.416 86.3684C111.808 86.0655 110.022 86.3993 108.327 86.3869L108.519 86.2447C107.703 86.4116 106.2 86.2571 105.125 86.3313L105.193 86.2633L104.648 86.356L104.636 86.22C103.233 86.2138 101.916 86.3251 100.549 86.3436L100.531 86.356Z" fill="#202020"/>
<path d="M86.3955 86.5105H86.4076C86.4499 86.4984 86.4257 86.4984 86.3955 86.5105Z" fill="#202020"/>
<path d="M226.021 85.8184C226.083 85.8245 226.139 85.8369 226.195 85.8431C226.182 85.8184 226.077 85.8245 226.021 85.8184Z" fill="#202020"/>
<path d="M0.27832 86.4545L45.0436 86.4359V30.7135L90.5694 0.661133L135.223 31.2946V86.4359" fill="white"/>
<path d="M135.953 86.4361L135.996 86.3125L135.885 85.9849L135.953 86.4361Z" fill="#202020"/>
<path d="M135.7 84.3099C135.682 84.3717 135.645 84.3408 135.626 84.4026L135.954 85.6512C136.139 85.0949 135.583 84.6746 135.706 84.3037L135.7 84.3099Z" fill="#202020"/>
<path d="M135.737 83.939C135.811 83.4568 135.663 83.2529 135.607 83.1416C135.725 83.3085 135.57 84.044 135.737 83.939Z" fill="#202020"/>
<path d="M135.656 41.252L135.669 41.4003C135.669 41.3261 135.669 41.2767 135.656 41.252Z" fill="#202020"/>
<path d="M134.203 30.695L134.036 30.7321C134.401 30.9299 134.809 31.1772 135.1 31.3626C135.112 31.6964 135.119 32.1785 135.112 32.6112C135.112 33.0562 135.1 33.5012 135.094 33.9463C135.081 34.8425 135.069 35.745 135.106 36.6165L135.063 36.4682C135.013 42.0435 135.217 47.1861 135.31 52.7182C135.298 52.6317 135.261 52.6008 135.248 52.5142C135.292 52.78 135.366 53.0767 135.36 53.3796C135.335 53.4599 135.304 53.293 135.292 53.2003C135.088 54.3686 135.421 56.6308 135.267 57.3602C135.285 57.6878 135.372 57.8361 135.434 57.6507C135.483 61.9836 135.527 66.6133 135.681 71.0266C135.656 71.2367 135.601 71.28 135.527 71.2182C135.854 74.9886 135.724 78.9383 135.669 82.7953C135.755 82.9437 135.762 82.3997 135.848 82.783C135.953 81.5406 135.638 80.5145 135.792 79.3896L135.873 79.5317C135.929 78.7158 135.663 79.3648 135.768 78.518C135.836 78.1842 135.873 78.6046 135.879 78.4439C135.842 76.707 135.922 74.8897 135.718 73.2517C135.898 72.85 135.718 71.3851 135.898 70.7422C135.83 70.291 135.842 69.8398 135.724 69.6667C135.817 63.5784 135.644 57.3602 135.656 51.1235C135.31 48.206 135.724 44.7075 135.607 41.2461C135.619 41.2214 135.632 41.2276 135.644 41.2461C135.558 40.115 135.52 38.4708 135.558 37.1233L135.409 35.9798C135.434 35.2072 135.459 34.4284 135.483 33.6434C135.502 32.8028 135.514 31.9621 135.533 31.1092C134.135 30.1325 132.732 29.1498 131.328 28.167C129.962 27.2274 128.589 26.2879 127.217 25.3422C124.471 23.4632 121.714 21.5718 118.993 19.6494C111.32 14.2843 104.698 9.43212 96.9196 4.65414C96.9506 4.6356 96.9011 4.57379 97.0989 4.69741C95.9922 3.98041 94.9658 3.25722 93.9518 2.5464C93.4448 2.19408 92.9378 1.84175 92.4369 1.48943L91.6764 0.970222C91.3796 0.772428 91.0767 0.574633 90.7737 0.376839L90.7922 0.345933C90.7119 0.296485 90.6377 0.247036 90.5573 0.191406C89.8648 0.679711 89.1661 1.16802 88.4674 1.6625C87.8306 2.10136 87.1813 2.54022 86.5383 2.97907C85.2337 3.84442 83.9167 4.70977 82.6121 5.58131C79.9904 7.30583 77.3936 9.01799 75.0255 10.7611C68.9846 14.7108 62.1956 19.2291 55.8642 23.5126L55.8394 23.4446C54.034 24.6994 52.2162 25.88 50.3922 27.042C48.5373 28.2226 46.6824 29.397 44.8151 30.5838C44.8089 31.4615 44.8027 32.3392 44.7965 33.2293C44.8027 34.0761 44.8089 34.9352 44.8151 35.7882C44.6605 42.0558 45.2108 48.682 45.0006 55.0052C44.6605 58.9178 45.3901 64.0543 45.0377 67.732C44.5987 74.0244 44.7594 80.1746 45.0129 86.4113C43.7825 86.4607 42.5335 86.5163 41.2845 86.5658C34.3162 86.3804 27.3665 86.8687 20.6208 86.4854C17.4241 86.7327 13.8936 86.1826 10.3384 86.2567L10.4682 86.3433C9.18833 86.0837 7.62401 86.708 6.8264 86.3247L6.96243 86.3062C6.28848 86.1084 5.39193 86.7698 4.98385 86.5349L4.87256 86.6338C4.05639 86.6647 4.77363 86.5225 4.14296 86.4854C3.908 86.4978 4.05021 86.6585 3.55557 86.6091C3.45046 86.2135 1.55226 86.6956 1.49661 86.2505C1.94179 86.2505 0.797927 86.0775 1.79958 85.9848C1.51516 85.9415 0.142523 85.96 0.266184 86.1517C0.148706 86.3495 -0.389219 86.5287 0.445493 86.6832L0.612435 86.5349C0.890673 86.6832 0.828842 86.6091 0.927771 86.7141C2.01599 86.7327 2.16438 86.9428 2.94345 87.0294C2.93726 87.0294 2.93108 87.0232 2.94345 87.0108C3.47519 86.8378 4.21715 86.9367 4.6376 86.9614L4.80454 87.0417C5.06423 87.2086 6.04115 86.708 5.71345 86.9985C7.92698 86.9243 10.4682 86.9305 12.9414 86.9243C13.2877 86.813 14.8335 86.9367 14.2955 86.7203C14.9138 86.9614 16.7564 87.0232 17.4427 87.017C17.418 87.0417 17.3871 87.0665 17.2819 87.0541C18.6051 87.3693 18.8524 86.7636 20.0952 87.1468C20.2869 86.8748 22.352 87.2333 23.0569 86.9119C23.2115 86.9737 23.261 87.0294 23.2053 87.0726C25.4436 87.0726 27.9168 87.1777 29.8088 87.1839C31.4288 86.9428 33.7289 87.289 35.12 86.9614C36.2701 87.0294 38.1374 87.1654 39.745 87.0356L39.5904 87.0788C40.4993 87.0665 41.5195 87.0603 42.4717 87.0232C43.461 86.9923 44.1473 86.9367 45.2788 86.8316C45.353 86.8501 45.4272 86.8748 45.5199 86.8872C45.5818 86.7389 45.625 86.5163 45.656 86.2567L45.6931 85.8364L45.7054 85.6201L45.7178 85.4965C45.7487 85.1565 45.7611 84.7918 45.8044 84.4271C45.656 83.2156 45.6992 80.7679 45.5694 78.9198C45.7178 78.6355 45.5076 77.3931 45.7178 77.3004C45.3097 72.1206 45.4519 65.717 45.7611 60.185L45.7734 60.2653C45.656 59.5483 45.4025 58.72 45.2479 57.9907C45.2664 57.9165 45.3035 57.9289 45.2973 58.0834C45.2603 57.0759 45.4643 56.1302 45.4272 55.1165C45.4519 55.1206 45.4746 55.1783 45.4952 55.2895C45.4025 54.3438 45.6621 53.3301 45.4952 52.2175L45.5508 52.1557L45.4705 51.4449C45.5385 51.4635 45.6436 51.4882 45.625 51.8714C45.6498 48.4038 45.6127 44.893 45.557 41.3574C45.5014 37.8898 45.4519 34.3975 45.3963 30.9052L47.4552 29.5268L49.6997 28.0495L49.4647 28.2844L50.8435 27.2336C50.8559 27.2707 50.7941 27.3263 50.7384 27.3881C52.6428 26.2756 54.4359 24.8539 56.2413 23.698C56.2537 23.729 56.0188 23.97 56.2908 23.834C57.5089 22.8018 58.5538 22.6349 58.999 21.8684C59.0732 21.8437 59.1597 21.887 59.0423 22.0044C62.6532 19.464 66.4434 16.973 70.1903 14.5748C73.084 12.2321 76.7196 10.2233 79.774 7.8683L79.7988 7.9363C81.4929 6.6939 83.2798 5.49477 85.1038 4.308C86.9093 3.14596 88.7333 1.97156 90.5449 0.803333C91.2003 1.24837 91.8434 1.69341 92.4926 2.13845C94.2424 3.37466 95.4852 4.12257 97.2659 5.34024V5.44532C100.444 7.21929 103.375 10.0131 106.707 11.8427L106.423 11.7933C107.01 11.9725 108.272 13.1408 108.272 12.7514L108.766 13.2088C111.128 14.3152 112.513 16.015 115.271 17.5726L115.055 17.517C115.778 17.9435 116.613 18.4565 117.083 18.8644C116.996 18.8212 117.021 18.8644 116.848 18.7655C118.839 20.4962 121.435 21.8746 123.711 23.4508L123.371 23.389C124.57 24.0071 126.506 25.5276 127.996 26.4548H127.872L128.657 26.8751L128.602 26.9987C130.481 28.3029 132.324 29.4217 134.179 30.6765L134.203 30.695Z" fill="#202020"/>
<path d="M135.292 53.1999C135.292 53.1999 135.292 53.1814 135.292 53.1752C135.279 53.1072 135.279 53.1381 135.292 53.1999Z" fill="#202020"/>
<path d="M3.23429 87.0726C3.12918 87.0602 3.04262 87.054 2.95605 87.0479C2.9746 87.0726 3.14773 87.0664 3.23429 87.0726Z" fill="#202020"/>
<path d="M189.171 86.1326C189.171 86.1326 208.963 60.8644 174.894 70.9519C174.894 70.9519 184.385 49.8621 156.87 53.2184C156.87 53.2184 149.859 53.5027 149.803 70.136C149.803 70.136 141.271 59.4551 135.279 66.6252C129.294 73.7952 135.05 77.7078 135.05 77.7078C135.05 77.7078 118.715 63.071 114.442 86.0337" fill="white"/>
<path d="M115.166 86.1704L115.222 86.1086L115.147 85.917L115.166 86.1704Z" fill="#202020"/>
<path d="M115.166 84.9648C115.166 84.9648 115.11 84.9648 115.079 85.0019L115.252 85.7498C115.5 85.484 114.999 85.1441 115.166 84.9648Z" fill="#202020"/>
<path d="M115.239 84.7673C115.369 84.52 115.239 84.3779 115.209 84.3037C115.301 84.4212 115.066 84.792 115.239 84.7673Z" fill="#202020"/>
<path d="M131.57 75.7672C131.57 75.7672 131.514 75.7425 131.489 75.7363C131.526 75.7611 131.551 75.7734 131.57 75.7672Z" fill="#202020"/>
<path d="M133.443 76.0765H133.306C133.832 76.6575 134.32 77.2942 134.982 77.8134L135.137 77.6156C134.79 77.2942 134.426 77.0036 134.042 76.7502L134.135 76.7688C132.88 75.8045 131.557 75.0195 130.153 74.4261C128.762 73.8266 127.284 73.4063 125.738 73.2765C125.788 73.2703 125.806 73.2332 125.862 73.227C125.708 73.2517 125.534 73.295 125.374 73.2826C125.33 73.2517 125.423 73.227 125.479 73.2208C124.823 72.955 123.562 73.3444 123.154 73.3012C122.975 73.3506 122.913 73.4495 123.03 73.4928C121.868 73.7524 120.749 74.3272 119.834 75.1431C118.912 75.959 118.195 76.9913 117.632 78.0544C117.552 78.141 117.496 78.1348 117.453 78.073C116.711 80.0324 115.901 82.0412 115.326 84.1243C115.388 84.2232 115.468 83.9326 115.505 84.1613C115.79 83.5247 115.635 82.8942 115.944 82.3317L116 82.4306C116.186 82.0165 115.827 82.2823 116.081 81.8682C116.204 81.7136 116.167 81.9423 116.198 81.8682C116.458 80.941 116.903 80.0571 117.101 79.1609C117.373 79.0496 117.571 78.2522 117.911 78.0483C117.985 77.8072 118.133 77.6156 118.084 77.4734C119.036 76.1383 120.198 74.9083 121.695 74.2469C123.166 73.5422 124.91 73.4248 126.567 73.7648C127.383 73.7339 128.243 74.0306 129.083 74.4138C129.924 74.8032 130.753 75.2977 131.606 75.7365C131.606 75.7551 131.606 75.7613 131.588 75.7674C132.169 76.0147 132.966 76.4783 133.548 76.9604L134.147 77.2262C134.401 77.4487 134.654 77.6774 134.896 77.9123L135.223 77.492C133.677 76.2063 132.756 74.1418 133.016 72.133C133.245 70.0994 134.432 68.2203 135.823 66.6874C136.676 65.7603 137.709 65.0803 138.828 64.8269C139.947 64.5611 141.103 64.7095 142.192 65.0804C144.387 65.8468 146.34 67.2932 148.294 68.9188C148.263 68.9373 148.282 68.9806 148.177 68.8941C148.789 69.4504 149.481 70.2725 150.112 71.076C150.161 71.076 150.149 70.8782 150.161 70.7546L150.18 70.3466L150.211 69.5122L150.236 68.6716V67.9607H150.273C150.199 66.2362 150.396 64.4437 150.712 62.6945C151.083 60.9576 151.503 59.2578 152.109 57.7063C152.598 56.7606 153.154 55.7964 153.958 54.999C154.731 54.2017 155.745 53.497 156.895 53.3363H156.901C158.88 53.12 160.976 52.8789 163.01 52.9036L162.997 52.9716C163.863 52.916 164.71 53.0272 165.557 53.0829C166.398 53.225 167.233 53.3363 168.043 53.5835C169.669 54.0224 171.221 54.6776 172.618 55.6295L173.125 56.0374L173.595 56.4887C173.929 56.773 174.183 57.1377 174.486 57.4591C175.005 58.1699 175.493 58.9302 175.815 59.777C176.483 61.4582 176.662 63.3558 176.378 65.1174C176.149 66.0013 176.013 67.0027 175.827 68.0164C175.741 68.5232 175.629 69.0362 175.506 69.5307C175.388 69.9881 175.277 70.3528 175.11 70.7299C175.067 70.7978 175.135 70.7608 175.172 70.7546L175.296 70.7237C175.376 70.7051 175.456 70.6928 175.537 70.6742C175.691 70.6433 175.852 70.6248 176.019 70.6124C178.127 70.2972 180.174 69.8274 182.221 69.3947C184.267 68.9682 186.326 68.5232 188.478 68.4429C189.467 68.5294 190.45 68.653 191.409 68.925C192.355 69.197 193.301 69.6482 193.987 70.4084C194.679 71.1625 195.044 72.1824 195.088 73.1776C195.143 74.1789 194.945 75.1555 194.618 76.0518C194.519 76.9666 194.111 77.8505 193.635 78.7096C193.152 79.5688 192.602 80.3971 192.144 81.2871L192.256 81.2686C191.687 81.7631 191.761 82.8448 191.192 83.024L191.217 82.9498C190.852 83.1662 191.13 83.945 190.803 84.013L190.846 84.1181C190.611 84.5198 190.722 84.1057 190.494 84.3777C190.426 84.4951 190.611 84.5198 190.407 84.7176C190.055 84.5446 189.826 85.6942 189.442 85.4594C189.591 85.2554 189.071 85.6757 189.325 85.1627C189.195 85.2677 188.756 85.892 188.948 85.9477C189.065 86.1207 189.016 86.4731 189.43 86.1887L189.374 86.0218C189.585 85.9848 189.504 85.9662 189.628 85.9909C190.011 85.5026 190.228 85.5583 190.562 85.243C190.562 85.243 190.549 85.243 190.549 85.2368C190.58 84.8845 190.902 84.6002 191.056 84.4086L191.18 84.3715C191.402 84.3406 191.291 83.5989 191.433 83.9141C192.064 82.8139 192.806 81.5653 193.443 80.292C193.437 80.0695 193.925 79.3154 193.597 79.507C193.975 79.2968 194.451 78.3326 194.574 77.9555C194.593 77.9803 194.611 78.005 194.574 78.0544C195.143 77.4301 194.611 77.1025 195.186 76.5153C194.97 76.3485 195.601 75.2235 195.316 74.7476C195.384 74.6672 195.446 74.6425 195.489 74.6796C195.576 74.012 195.613 73.2826 195.527 72.5595C195.446 71.8424 195.211 71.1316 194.871 70.5877C194.482 70.1921 194.067 69.6976 193.579 69.3206C193.097 68.9373 192.546 68.6777 192.095 68.6839C191.47 68.3501 190.376 67.9669 189.411 68.0164L189.51 67.9855C188.435 67.8866 187.111 67.936 186.407 68.1894C186.079 67.8927 185.627 67.9978 185.164 67.936C184.484 68.1523 183.08 68.3007 182.066 68.6283C181.881 68.5047 181.225 68.857 181.126 68.6592C180.155 68.993 179.111 69.3206 178.028 69.6173C177.484 69.7656 176.934 69.9201 176.378 70.0561C176.217 70.0994 176.118 70.1179 176 70.1427C175.902 70.155 175.759 70.2045 175.735 70.1674L175.889 69.8892L175.957 69.778L175.988 69.7347L176 69.7162L176.038 69.6234C176.235 69.1351 176.427 68.653 176.594 68.1709V68.2203C176.594 67.7877 176.439 67.2623 176.371 66.8234C176.396 66.7863 176.433 66.7987 176.415 66.8852C176.483 66.3104 176.773 65.8035 176.798 65.2163C176.823 65.2205 176.843 65.2555 176.86 65.3214C176.835 65.0433 176.903 64.7651 176.965 64.4684C177.008 64.1717 177.045 63.8627 176.971 63.5351L177.027 63.498L176.934 63.0839C177.002 63.09 177.107 63.1024 177.095 63.3311C177.095 62.0578 176.909 60.7474 176.458 59.505C176.013 58.2626 175.283 57.1068 174.343 56.1734C172.427 54.2944 169.861 53.4167 167.375 52.9036L167.573 52.8789C167.239 52.8295 166.905 52.848 166.571 52.8356C166.584 52.7986 166.633 52.7924 166.683 52.78C166.373 52.7058 166.058 52.6502 165.743 52.6069C165.427 52.5637 165.106 52.5698 164.784 52.5575C164.148 52.5389 163.511 52.5389 162.899 52.5328C162.899 52.5019 163.09 52.4339 162.923 52.3906C162.014 52.5699 161.458 52.1248 161.013 52.5575C160.969 52.5389 160.939 52.4524 161.031 52.4153C160.339 52.4957 159.64 52.5266 158.948 52.6131C158.249 52.6997 157.55 52.7738 156.852 52.848H156.882C155.572 53.0211 154.551 53.701 153.68 54.5107C153.012 55.4008 152.443 56.3712 151.893 57.3664C151.67 57.8856 151.417 58.4048 151.244 58.9364C151.089 59.4803 150.928 60.0181 150.848 60.562L150.78 60.5311C150.687 61.2357 150.52 61.9342 150.409 62.6512C150.298 63.362 150.18 64.0852 150.069 64.8084C149.988 65.5377 149.902 66.2671 149.821 67.0027C149.784 67.3674 149.778 67.7382 149.766 68.1029L149.741 69.0362L149.722 69.4689V69.778C149.722 69.8274 149.685 69.7532 149.673 69.7471C149.277 69.302 148.913 68.9621 148.3 68.3625L148.344 68.276C147.49 67.6764 146.73 66.9223 145.883 66.2177C145.036 65.5316 144.09 64.8702 143.008 64.6477L143.193 64.592C142.816 64.6291 141.969 64.0914 142 64.4437C141.889 64.3757 141.771 64.3201 141.66 64.2583C140.905 64.3139 140.287 64.1965 139.582 64.2026C138.89 64.2026 138.098 64.3263 137.387 64.8887L137.455 64.7651C137.06 65.0371 136.652 65.4018 136.336 65.5748C136.367 65.5316 136.336 65.5316 136.41 65.4389C135.743 65.8035 135.18 66.4155 134.759 67.0892C134.283 67.7382 133.95 68.4799 133.548 69.1537C133.529 69.0795 133.523 69.0053 133.511 68.9312C133.399 69.3082 133.189 69.8027 132.96 70.3281L132.701 71.1564C132.608 71.4283 132.608 71.7126 132.577 71.9599L132.521 71.8919C132.534 72.065 132.521 72.238 132.552 72.4049H132.416C132.323 73.7586 132.806 74.9948 133.486 76.0579L133.443 76.0765Z" fill="#202020"/>
<path d="M125.473 73.2208C125.473 73.2208 125.479 73.2208 125.485 73.2208C125.521 73.2148 125.503 73.2148 125.473 73.2208Z" fill="#202020"/>
<path d="M190.66 85.1382C190.617 85.1815 190.586 85.2185 190.543 85.2556C190.574 85.2556 190.623 85.1815 190.66 85.1382Z" fill="#202020"/>
<path d="M73.7637 87.8764V43.1934H106.497V86.4547" fill="#202020"/>
<path d="M107.232 86.455L107.276 86.3993L107.158 86.251L107.232 86.455Z" fill="#202020"/>
<path d="M106.979 85.4844C106.979 85.4844 106.924 85.4967 106.905 85.5276L107.233 86.0963C107.418 85.8429 106.862 85.6513 106.986 85.4844H106.979Z" fill="#202020"/>
<path d="M107.01 85.3178C107.084 85.0953 106.936 85.0026 106.88 84.9531C106.997 85.0335 106.843 85.3673 107.01 85.3178Z" fill="#202020"/>
<path d="M106.936 65.8223C106.936 65.8223 106.936 65.8717 106.948 65.8903C106.948 65.8532 106.948 65.8346 106.936 65.8223Z" fill="#202020"/>
<path d="M106.416 60.7418L106.293 60.6861C106.509 61.6318 106.293 62.7073 106.385 63.7087L106.342 63.6407C106.293 66.1873 106.497 68.5361 106.59 71.0642C106.577 71.0271 106.54 71.0085 106.528 70.9714C106.571 71.0951 106.645 71.2311 106.639 71.367C106.614 71.4041 106.583 71.33 106.571 71.2867C106.367 71.8183 106.701 72.8567 106.546 73.1843C106.565 73.3326 106.651 73.4006 106.713 73.3141C106.763 75.292 106.806 77.406 106.96 79.421C106.936 79.5199 106.88 79.5384 106.806 79.5075C107.134 81.2259 107.004 83.0307 106.948 84.7923C107.035 84.8603 107.041 84.6131 107.127 84.7862C107.233 84.2175 106.917 83.7477 107.072 83.2347L107.152 83.3027C107.208 82.9318 106.942 83.2285 107.047 82.8391C107.115 82.6846 107.152 82.8762 107.158 82.8082C107.121 82.017 107.202 81.1826 106.998 80.4409C107.177 80.2554 106.998 79.5879 107.177 79.2912C107.109 79.0872 107.121 78.877 107.004 78.8029C107.097 76.0214 106.923 73.1843 106.936 70.3348C106.59 68.9997 107.004 67.405 106.886 65.8226C106.899 65.8102 106.911 65.8164 106.923 65.8226C106.837 65.3096 106.8 64.5555 106.837 63.9374L106.688 63.4182C106.991 59.7157 106.781 55.9329 106.905 52.1686C106.948 50.5924 106.985 49.0842 107.022 47.607C107.041 46.8652 107.047 46.1297 107.047 45.4003V44.3001C107.029 43.7562 107.016 43.2122 107.01 42.6621C106.571 42.6745 106.132 42.6868 105.687 42.6992C105.421 42.7177 105.155 42.7301 104.889 42.7486C104.357 42.7857 103.82 42.8352 103.275 42.897C103.275 42.8661 103.244 42.8475 103.356 42.829C102.156 42.897 101.062 42.7734 99.9304 42.8475V42.8105C97.1294 43.0948 94.0874 42.7734 91.3854 43.0824C88.0898 43.0515 84.3676 43.0824 80.8742 43.169V43.101C79.6809 43.1628 78.4937 43.1319 77.3066 43.0824L75.5321 43.0083L74.6417 42.9835L73.5226 42.9712C73.5226 43.4347 73.5226 43.9972 73.5411 44.331C73.3865 47.1928 73.9368 50.2154 73.7266 53.102C73.3865 54.8883 74.1161 57.2371 73.7637 58.9122C73.232 62.3612 73.572 65.7052 73.8935 69.148C73.7019 72.3251 74.1903 75.5022 73.807 78.5804C74.0543 80.0391 73.504 81.6524 73.572 83.2718L73.6586 83.2162C73.3989 83.7972 74.0234 84.5142 73.6339 84.8789L73.6153 84.8171C73.4174 85.1261 74.079 85.5341 73.8441 85.7195L73.943 85.7689C73.9739 86.1398 73.8317 85.8122 73.7946 86.1027C73.807 86.214 73.9677 86.146 73.9183 86.3685C73.5226 86.418 74.0048 87.2833 73.5597 87.308C73.5597 87.1041 73.3865 87.6295 73.2938 87.1721C73.2505 87.3019 73.2691 87.9261 73.4607 87.8705C73.6586 87.9261 73.8379 88.1672 73.9925 87.7902L73.8441 87.716C73.9925 87.5862 73.9183 87.6171 74.0234 87.5738C74.0419 87.0793 74.2522 87.0113 74.3449 86.6528C74.3449 86.6528 74.3387 86.659 74.3264 86.6528C74.1532 86.4118 74.2583 86.0718 74.2831 85.8802L74.3635 85.7999C74.5304 85.6824 74.0296 85.2374 74.3202 85.3857C74.246 84.372 74.2522 83.2162 74.246 82.085C74.1347 81.9243 74.2583 81.2197 74.0419 81.4669C74.2831 81.1826 74.3449 80.342 74.3387 80.0329C74.3635 80.0453 74.3882 80.0576 74.3758 80.1071C74.6912 79.5013 74.0852 79.3901 74.4686 78.8214C74.1965 78.7349 74.5551 77.7892 74.2336 77.4678C74.2954 77.3998 74.3511 77.375 74.3944 77.3998C74.3944 76.3799 74.4995 75.2488 74.5118 74.3834C74.2707 73.6479 74.6231 72.5971 74.2893 71.9604C74.3573 71.435 74.4995 70.582 74.3635 69.8465L74.4067 69.9207C74.3882 69.0924 74.3696 68.054 74.1656 67.4853C74.4809 67.2381 74.4191 66.8796 74.518 66.5211C74.3696 65.9648 74.4129 64.8522 74.2831 64.0054C74.4315 63.8756 74.2212 63.3069 74.4315 63.2636C74.0234 60.8963 74.1656 57.9726 74.4747 55.4508L74.4871 55.4878C74.3696 55.1602 74.1161 54.7832 73.9616 54.4494C73.9801 54.4185 74.0172 54.4185 74.011 54.4927C73.9739 54.0291 74.178 53.6026 74.1409 53.139C74.1656 53.139 74.1883 53.1658 74.2089 53.2194C74.1161 52.7867 74.3758 52.3231 74.2089 51.8163L74.2645 51.7854L74.1841 51.464C74.2522 51.4701 74.3573 51.4825 74.3387 51.6556C74.3635 50.2648 74.3387 48.8617 74.2893 47.4463C74.2645 46.7416 74.2398 46.0308 74.2151 45.32L74.178 44.2506V43.9849L74.1594 43.8489L74.1409 43.5893L74.3511 43.5769L74.6417 43.5646L75.5506 43.546C76.1565 43.5398 76.7687 43.5336 77.3746 43.546L77.2262 43.614L78.0176 43.4966C78.0176 43.5336 77.9744 43.546 77.9373 43.5646C78.9389 43.682 79.9838 43.4842 80.9608 43.5151C80.9608 43.546 80.8062 43.614 80.9422 43.6573C81.6656 43.4656 82.1046 43.9045 82.4694 43.5089C82.5003 43.5275 82.5251 43.614 82.4509 43.6511C84.4666 43.5213 86.5379 43.5275 88.5721 43.5893C90.2663 43.2308 92.1521 43.5584 93.9143 43.2679V43.342C96.1834 43.0886 98.5948 43.3606 100.951 43.3111C101.927 43.342 102.589 43.2555 103.572 43.2493L103.597 43.3358C104.054 43.2431 104.531 43.2246 105.007 43.2369C105.242 43.2431 105.495 43.2617 105.724 43.2802L106.305 43.3358C106.243 43.9107 106.206 44.7575 106.373 45.5178L106.249 45.4003C106.435 45.6661 106.181 46.4449 106.503 46.346L106.404 46.6489C106.831 47.8233 106.206 48.7876 106.484 50.2216L106.41 50.1289C106.472 50.5121 106.515 50.9571 106.447 51.2414C106.435 51.1982 106.416 51.2167 106.392 51.124C106.089 52.3231 106.423 53.6521 106.41 54.9192L106.268 54.777C106.435 55.389 106.28 56.5077 106.355 57.3113L106.287 57.2618L106.379 57.6698L106.243 57.6821C106.237 58.7267 106.348 59.7095 106.367 60.7294L106.416 60.7418Z" fill="#202020"/>
<path d="M106.571 71.2801C106.571 71.2801 106.571 71.2739 106.571 71.2678C106.558 71.2371 106.558 71.2494 106.571 71.2801Z" fill="#202020"/>
<path d="M74.3822 86.5229C74.376 86.5724 74.3636 86.6095 74.3574 86.6528C74.3822 86.6404 74.376 86.5662 74.3822 86.5229Z" fill="#202020"/>
<path d="M102.435 65.5316L102.478 65.5254L102.36 65.5068L102.435 65.5316Z" fill="#DADADA"/>
<path d="M102.175 65.4141H102.101C102.212 65.4388 102.317 65.4635 102.428 65.4882C102.614 65.445 102.051 65.4388 102.175 65.4141Z" fill="#DADADA"/>
<path d="M102.206 65.3896C102.28 65.3587 102.126 65.3525 102.076 65.3525C102.194 65.3525 102.045 65.402 102.206 65.3896Z" fill="#DADADA"/>
<path d="M100.889 63.4363C100.889 63.4363 100.895 63.4363 100.901 63.4363C100.901 63.4302 100.901 63.4363 100.889 63.4363Z" fill="#DADADA"/>
<path d="M100.184 63.7209L100.153 63.8383C100.295 63.6467 100.333 63.8939 100.45 63.8383L100.425 63.8754C100.617 64.0052 100.908 63.9496 101.173 64.0732L101.124 64.1103C101.161 64.0855 101.229 64.0423 101.229 64.0608C101.211 64.0855 101.186 64.0979 101.173 64.1041C101.068 64.2833 101.377 64.1412 101.285 64.271C101.309 64.271 101.377 64.2215 101.427 64.1721C101.606 64.3142 101.761 64.4997 102.002 64.6727C101.983 64.6913 101.928 64.716 101.866 64.7346C102.255 64.8149 102.181 65.1116 102.144 65.3279C102.231 65.3279 102.231 65.297 102.323 65.3094C102.429 65.2167 102.095 65.1981 102.243 65.1116H102.323C102.367 65.0498 102.113 65.1301 102.212 65.0621C102.28 65.0312 102.317 65.0498 102.323 65.0374C102.268 64.9385 102.311 64.8087 102.089 64.7716C102.249 64.6913 102.058 64.6666 102.206 64.5677C102.132 64.5677 102.138 64.5368 102.027 64.5677C101.971 64.1906 101.6 63.9743 101.353 63.7394C101.013 63.9001 101.112 63.4612 100.87 63.4551C100.87 63.4427 100.883 63.4303 100.889 63.4242C100.79 63.4736 100.697 63.4674 100.648 63.3994L100.537 63.5169C100.394 63.2944 100.166 63.2264 99.943 63.2016C99.7142 63.1831 99.4916 63.2202 99.2567 63.2016C98.9908 63.214 98.7187 63.2387 98.4838 63.3562C98.2488 63.4736 98.0633 63.6961 98.0757 64.0361C98.051 64.0114 98.0324 64.0052 98.0324 63.9866C97.9953 64.135 97.8098 64.1659 97.8037 64.3266L97.7727 64.3081C97.8037 64.5244 97.7356 64.6666 97.6738 64.8211C97.612 64.9756 97.5749 65.1487 97.7109 65.3094C97.6429 65.6555 97.7356 66.082 97.983 66.3664L97.9211 66.3973C98.0448 66.5023 98.0757 66.6383 98.119 66.799C98.1623 66.9536 98.2303 67.1143 98.3849 67.1761C98.4591 67.3368 98.6631 67.3615 98.8424 67.343C99.0279 67.3306 99.1825 67.2997 99.2938 67.4357C99.3432 67.6273 99.4854 67.5469 99.5906 67.4604C99.7019 67.3739 99.7884 67.2812 99.8812 67.448C100.073 67.7076 100.302 67.7076 100.462 67.5902C100.629 67.4728 100.722 67.2317 100.765 67.0154C100.938 67.003 101.025 66.8423 101.074 66.7001C101.136 66.558 101.186 66.4405 101.427 66.4034C101.26 66.1809 101.841 66.2427 101.816 66.0264L101.73 66.014C102.002 66.0017 101.402 65.8162 101.786 65.8471H101.804C102.002 65.8471 101.359 65.7235 101.594 65.7359L101.501 65.7235C101.476 65.6864 101.612 65.7297 101.65 65.705C101.637 65.6926 101.476 65.6864 101.532 65.6679C101.928 65.6926 101.452 65.5752 101.897 65.5937C101.897 65.6184 102.07 65.5628 102.163 65.6184C102.212 65.6061 102.187 65.5257 102.002 65.5319C101.804 65.5319 101.625 65.501 101.47 65.5381H101.619C101.47 65.5566 101.544 65.5566 101.433 65.5566C101.408 65.5999 101.198 65.5999 101.112 65.6184H101.13C101.303 65.6494 101.198 65.6679 101.173 65.6803H101.093C100.92 65.6617 101.415 65.7606 101.13 65.7112C101.192 65.7915 101.167 65.878 101.149 65.9646C101.248 66.0079 101.118 66.0202 101.322 66.0758C101.081 66.0202 101.006 66.0511 101.006 66.0758C100.988 66.0635 100.963 66.0573 100.969 66.0573C100.666 65.9584 101.211 66.2304 100.846 66.0944C101.087 66.2304 100.741 66.1067 101.006 66.2922C100.951 66.2675 100.901 66.2366 100.864 66.2118C100.827 66.2736 100.697 66.2675 100.66 66.2984C100.802 66.4962 100.512 66.2984 100.71 66.5703C100.635 66.5456 100.506 66.4714 100.549 66.6074L100.53 66.5703C100.499 66.626 100.45 66.6692 100.512 66.8732C100.345 66.6074 100.351 66.6692 100.289 66.5889C100.32 66.7372 100.24 66.731 100.227 66.8732C100.172 66.7372 100.196 66.9474 100.135 66.7496C100.098 67.1946 99.7451 67.0834 99.6338 66.7496V66.7372C99.6029 66.8485 99.5411 67.1019 99.4854 67.2441C99.4854 67.2255 99.4916 67.1884 99.4978 67.1946C99.4483 67.2255 99.4545 67.0154 99.4112 67.0463C99.4154 67.0215 99.4236 66.9989 99.436 66.9783C99.3803 67.0586 99.4174 66.799 99.3309 66.9474L99.3432 66.8917L99.2938 66.9597C99.3185 66.8917 99.3494 66.7928 99.3556 66.8176C99.2381 66.7434 99.0897 66.7496 98.9166 66.7187C98.7497 66.694 98.5642 66.6198 98.49 66.4653L98.5518 66.4343L98.4158 66.4529C98.4158 66.4529 98.4591 66.4282 98.4776 66.422C98.5394 66.2922 98.323 66.3231 98.3107 66.2304C98.3416 66.218 98.4096 66.1995 98.4405 66.1747C98.2365 66.1995 98.6322 66.0017 98.255 66.1191C98.2736 66.1067 98.3539 66.0758 98.3849 66.0697C98.2056 65.9708 98.1685 65.7792 98.2303 65.6123C97.8655 65.4639 98.1994 65.3217 97.9582 65.1116L98.0262 65.1301C97.8346 64.8458 98.187 64.7098 98.2612 64.5182C98.3416 64.4626 98.3045 64.3575 98.3725 64.2833L98.4405 64.339C98.3663 64.1659 98.4962 64.1535 98.6013 64.1535C98.7187 64.1535 98.8053 64.1659 98.7806 63.9681L98.8362 64.0794C98.7558 63.9063 98.9537 64.0855 98.7806 63.8136L98.8548 63.8816C98.7744 63.4427 99.1268 63.9681 99.1516 63.6652L99.1639 63.7394C99.1825 63.6714 99.2134 63.6158 99.2629 63.6714C99.2629 63.6838 99.269 63.7023 99.2629 63.727C99.4422 63.9928 99.4854 63.6405 99.6277 63.6467V63.7888C99.6709 63.622 99.7884 63.7703 99.8626 63.6961V63.7641L99.8997 63.6714V63.8074C99.9801 63.8198 100.091 63.7209 100.19 63.727L100.184 63.7209Z" fill="#DADADA"/>
<path d="M134.778 30.7128L134.797 30.7499L134.834 30.6387L134.778 30.7128Z" fill="#1D1D1D"/>
<path d="M135.05 30.4599C135.05 30.4599 135.05 30.4043 135.038 30.3857L134.877 30.7072C134.945 30.8926 135.001 30.3363 135.05 30.4599Z" fill="#1D1D1D"/>
<path d="M135.1 30.4911C135.162 30.5653 135.186 30.417 135.205 30.3613C135.18 30.4788 135.087 30.3242 135.1 30.4911Z" fill="#1D1D1D"/>
<path d="M140.541 30.4414C140.541 30.4414 140.529 30.4414 140.522 30.4539C140.535 30.4539 140.541 30.4539 140.541 30.4414Z" fill="#1D1D1D"/>
<path d="M141.963 29.9283L141.975 29.8047C141.709 30.021 141.413 29.7985 141.128 29.8912L141.147 29.848C140.436 29.7985 139.78 29.9963 139.075 30.089C139.088 30.0767 139.088 30.0396 139.1 30.0272C139.063 30.0705 139.026 30.1447 138.989 30.1385C138.976 30.1138 139.001 30.0829 139.014 30.0705C138.865 29.8665 138.575 30.1941 138.482 30.0396C138.439 30.0581 138.42 30.1447 138.445 30.2065C137.894 30.2559 137.301 30.293 136.738 30.4475C136.713 30.4166 136.707 30.3672 136.713 30.293C136.231 30.6206 135.73 30.4846 135.236 30.429C135.217 30.5155 135.285 30.5217 135.236 30.6083C135.396 30.7195 135.526 30.3981 135.669 30.5588L135.65 30.6392C135.755 30.6948 135.675 30.429 135.78 30.5403C135.823 30.6083 135.767 30.6453 135.786 30.6515C136.009 30.6206 136.237 30.6948 136.448 30.4908C136.497 30.6701 136.689 30.497 136.769 30.6701C136.825 30.6021 136.887 30.6206 136.905 30.497C137.684 30.5959 138.476 30.4228 139.273 30.4414C139.644 30.0952 140.089 30.5094 140.535 30.3981C140.535 30.4105 140.535 30.4228 140.535 30.4352C140.677 30.3486 140.887 30.3116 141.06 30.3548L141.209 30.2065C142.241 30.5155 143.298 30.3054 144.35 30.4352C145.543 30.5279 146.588 30.7813 147.75 30.3301C147.75 30.361 147.756 30.3796 147.725 30.3981C148.059 30.3301 148.369 30.4537 148.684 30.3857V30.4228C149.469 30.1385 150.316 30.4661 151.071 30.1632C151.992 30.2003 153.031 30.1694 154.007 30.089V30.157C154.787 30.0149 155.535 30.3857 156.314 30.2745C157.111 30.4352 157.958 29.8851 158.768 30.1014C159.263 30.4414 159.925 29.7182 160.395 30.0705C161.353 30.6021 162.293 30.2683 163.257 29.9531C164.148 30.1447 165.032 29.6625 165.891 30.052C166.299 29.8047 166.745 30.361 167.202 30.293L167.184 30.2065C167.344 30.4661 167.548 29.848 167.647 30.2312L167.629 30.2497C167.715 30.4475 167.833 29.7923 167.882 30.021L167.895 29.9222C168 29.8974 167.907 30.0334 167.987 30.0705C168.018 30.0581 168 29.8974 168.062 29.9531C168.074 30.3486 168.315 29.8665 168.321 30.3116C168.266 30.3116 168.408 30.4846 168.284 30.5773C168.321 30.6206 168.494 30.6021 168.482 30.4105C168.501 30.2127 168.569 30.0334 168.463 29.8789L168.439 30.0272C168.402 29.8789 168.414 29.9531 168.402 29.848C168.266 29.8294 168.247 29.6131 168.148 29.5266C168.148 29.5266 168.148 29.5327 168.148 29.5451C168.08 29.7182 167.987 29.6131 167.932 29.5884L167.913 29.508C167.882 29.335 167.752 29.8418 167.796 29.5451C167.511 29.6131 167.19 29.6131 166.874 29.6131C166.831 29.7244 166.633 29.6007 166.701 29.8171C166.621 29.576 166.386 29.508 166.299 29.5204C166.299 29.4957 166.306 29.4709 166.318 29.4833C166.151 29.1681 166.114 29.7738 165.959 29.3906C165.935 29.6625 165.675 29.304 165.582 29.6255C165.564 29.5636 165.557 29.508 165.564 29.4586C165.279 29.4524 164.964 29.3535 164.723 29.3349C164.512 29.576 164.222 29.2237 164.043 29.5513C163.894 29.4833 163.659 29.3411 163.455 29.4709L163.474 29.4277C163.245 29.4462 162.954 29.4648 162.794 29.6687C162.726 29.3535 162.627 29.4153 162.528 29.3164C162.373 29.4648 162.058 29.4153 161.823 29.5513C161.786 29.4029 161.625 29.6131 161.619 29.4029C160.957 29.8109 160.141 29.6625 159.436 29.3473L159.449 29.3349C159.356 29.4524 159.251 29.7058 159.158 29.8542C159.152 29.8356 159.152 29.7985 159.17 29.8047C159.04 29.8418 158.923 29.6378 158.793 29.6749C158.793 29.6502 158.801 29.6275 158.818 29.6069C158.694 29.6996 158.571 29.4338 158.428 29.6007V29.5451L158.329 29.6255C158.329 29.5575 158.336 29.4524 158.385 29.4709C157.278 29.3968 156.134 29.7553 155.003 29.6996L155.046 29.6316L154.824 29.7491C154.824 29.712 154.836 29.6996 154.848 29.6811C154.57 29.5636 154.273 29.7553 154.001 29.7244C154.001 29.6935 154.045 29.6255 154.001 29.5822C153.797 29.7738 153.68 29.3349 153.575 29.7305C153.562 29.712 153.562 29.6255 153.575 29.5884C153.012 29.7182 152.431 29.7058 151.868 29.6378C151.392 29.9963 150.866 29.6687 150.378 29.9531V29.8789C149.747 30.1261 149.073 29.8542 148.412 29.9036C148.14 29.8727 147.954 29.9592 147.676 29.9592V29.8727C147.206 30.2127 146.699 29.5636 146.217 29.9345L146.248 29.8109C146.174 29.9963 145.957 29.7429 145.982 30.0643L145.895 29.9654C145.568 30.3919 145.302 29.7676 144.894 30.0396L144.918 29.9654C144.813 30.0272 144.69 30.0705 144.609 30.0025C144.622 29.9901 144.615 29.9716 144.64 29.9469C144.306 29.644 143.935 29.9778 143.583 29.9592L143.626 29.8171C143.453 29.984 143.144 29.8294 142.915 29.9036L142.927 29.8356L142.816 29.9283V29.7923C142.519 29.78 142.247 29.8974 141.963 29.9098V29.9283Z" fill="#1D1D1D"/>
<path d="M168.117 29.5078C168.117 29.5078 168.141 29.5259 168.153 29.532C168.153 29.5078 168.129 29.5139 168.117 29.5078Z" fill="#1D1D1D"/>
</g>
<defs>
<clipPath id="clip0_704_1281">
<rect width="228" height="88" fill="white"/>
</clipPath>
</defs>
</svg>
